<svg width="13" height="16" viewBox="0 0 13 16" fill="none" xmlns="http://www.w3.org/2000/svg">
<path d="M10.2661 4.9999C11.3281 4.9999 12.1891 4.13892 12.1891 3.07685C12.1891 2.01478 11.3281 1.15381 10.2661 1.15381C9.20395 1.15381 8.34296 2.01478 8.34296 3.07685C8.34296 4.13892 9.20395 4.9999 10.2661 4.9999Z" stroke="#808080" stroke-miterlimit="22.9256"/>
<path d="M8.65164 4.12219L4.5376 6.78589" stroke="#808080" stroke-miterlimit="22.9256"/>
<path d="M2.9231 9.75417C3.98519 9.75417 4.84619 8.8932 4.84619 7.83113C4.84619 6.76906 3.98519 5.90808 2.9231 5.90808C1.861 5.90808 1 6.76906 1 7.83113C1 8.8932 1.861 9.75417 2.9231 9.75417Z" stroke="#808080" stroke-miterlimit="22.9256"/>
<path d="M10.2661 14.5085C11.3281 14.5085 12.1891 13.6475 12.1891 12.5855C12.1891 11.5234 11.3281 10.6624 10.2661 10.6624C9.20395 10.6624 8.34296 11.5234 8.34296 12.5855C8.34296 13.6475 9.20395 14.5085 10.2661 14.5085Z" stroke="#808080" stroke-miterlimit="22.9256"/>
<path d="M8.65164 11.5401L4.5376 8.87646" stroke="#808080" stroke-miterlimit="22.9256"/>
</svg>
